<svg width="20" height="21" viewBox="0 0 20 21" fill="none" xmlns="http://www.w3.org/2000/svg">
<path fill-rule="evenodd" clip-rule="evenodd" d="M10 1.75C10.2708 1.75 10.5108 1.92433 10.5944 2.18182L12.4854 8H18.75C19.024 8 19.2659 8.17835 19.347 8.43998C19.4281 8.70161 19.3294 8.98555 19.1035 9.14046L14.0247 12.6231L15.9829 18.4251C16.0698 18.6828 15.9802 18.9671 15.7612 19.1283C15.5422 19.2895 15.2441 19.2907 15.0239 19.1311L10 15.4906L4.97616 19.1311C4.75596 19.2907 4.45787 19.2895 4.23888 19.1283C4.0199 18.9671 3.93028 18.6828 4.01724 18.4251L5.97543 12.6231L0.896592 9.14046C0.670692 8.98555 0.571975 8.70161 0.653061 8.43998C0.734146 8.17835 0.976139 8 1.25005 8H7.51474L9.40565 2.18182C9.48933 1.92433 9.7293 1.75 10 1.75ZM10 4.39709L8.56319 8.81818C8.47951 9.07567 8.23955 9.25 7.9688 9.25H3.26667L7.07225 11.8595C7.30291 12.0177 7.40041 12.3099 7.31098 12.5749L5.82744 16.9705L9.63331 14.2127C9.8521 14.0541 10.148 14.0541 10.3668 14.2127L14.1727 16.9705L12.6891 12.5749C12.5997 12.3099 12.6972 12.0177 12.9278 11.8595L16.7334 9.25H12.0313C11.7605 9.25 11.5206 9.07567 11.4369 8.81818L10 4.39709Z" fill="#FF859B"/>
</svg>
