<svg width="20" height="21" viewBox="0 0 20 21" fill="none" xmlns="http://www.w3.org/2000/svg">
<path d="M15.3907 19.2503C15.2591 19.2508 15.1308 19.2098 15.0239 19.1331L10.0001 15.4909L4.97624 19.1331C4.86891 19.211 4.7396 19.2526 4.60701 19.2522C4.47442 19.2517 4.34542 19.209 4.23866 19.1304C4.1319 19.0518 4.05291 18.9413 4.01311 18.8148C3.9733 18.6883 3.97476 18.5524 4.01725 18.4269L5.97663 12.6233L0.898504 9.14092C0.788508 9.06557 0.70549 8.95702 0.661579 8.83113C0.617668 8.70524 0.615165 8.56861 0.654436 8.4412C0.693707 8.31379 0.772694 8.20227 0.879856 8.12294C0.987018 8.04362 1.11674 8.00064 1.25007 8.00029H7.51491L9.40553 2.18193C9.44626 2.05632 9.52573 1.94683 9.63254 1.86917C9.73935 1.79152 9.86801 1.74969 10.0001 1.74969C10.1321 1.74969 10.2608 1.79152 10.3676 1.86917C10.4744 1.94683 10.5539 2.05632 10.5946 2.18193L12.4852 8.00224H18.7501C18.8836 8.00218 19.0136 8.04486 19.121 8.12403C19.2285 8.2032 19.3078 8.31471 19.3474 8.44222C19.3869 8.56973 19.3845 8.70654 19.3407 8.83262C19.2968 8.9587 19.2137 9.06743 19.1036 9.14287L14.0235 12.6233L15.9817 18.4253C16.0134 18.5192 16.0224 18.6194 16.0077 18.7174C15.9931 18.8155 15.9554 18.9087 15.8976 18.9893C15.8399 19.0699 15.7638 19.1356 15.6757 19.181C15.5875 19.2263 15.4898 19.2501 15.3907 19.2503Z" fill="#FF859B"/>
</svg>
